<?xml version="1.0" standalone="no"?>
<!DOCTYPE svg PUBLIC "-//W3C//DTD SVG 20010904//EN"
 "http://www.w3.org/TR/2001/REC-SVG-20010904/DTD/svg10.dtd">
<svg version="1.0" xmlns="http://www.w3.org/2000/svg"
 width="1024.000000pt" height="1024.000000pt" viewBox="0 0 1024.000000 1024.000000"
 preserveAspectRatio="xMidYMid meet">

<g transform="translate(0.000000,1024.000000) scale(0.100000,-0.100000)"
fill="#000000" stroke="none">
<path d="M4628 9881 c-16 -13 -29 -38 -36 -73 -18 -78 -55 -151 -104 -204 -50
-54 -121 -104 -338 -234 -335 -203 -492 -368 -554 -582 -9 -32 -20 -58 -24
-58 -13 0 -73 124 -111 230 -31 86 -43 108 -67 122 -28 17 -32 17 -64 0 -80
-40 -151 -222 -180 -462 -10 -82 -11 -134 -2 -235 l11 -130 -48 -45 c-27 -25
-56 -59 -65 -77 -22 -44 -46 -148 -46 -206 0 -45 29 -249 49 -347 24 -114 24
-112 -20 -171 -67 -88 -178 -339 -179 -403 0 -35 -12 -8 -25 56 -53 264 -89
334 -198 390 -59 30 -189 23 -271 -15 -133 -61 -247 -169 -316 -298 -36 -69
-39 -112 -8 -133 28 -20 45 -20 83 0 90 48 185 66 220 41 17 -13 17 -15 -2
-43 -11 -16 -60 -96 -109 -179 -49 -82 -140 -224 -203 -314 -271 -392 -490
-748 -610 -995 -188 -388 -326 -858 -381 -1297 -17 -143 -23 -215 -34 -474 -4
-84 9 -386 19 -470 26 -209 62 -369 121 -545 39 -114 90 -217 117 -234 34 -21
40 5 42 186 2 150 5 186 28 270 72 272 219 438 388 438 116 0 206 -55 324
-198 131 -158 142 -168 162 -156 15 9 19 30 25 112 14 206 67 330 198 463 72
73 100 94 180 133 110 53 173 71 308 86 127 14 275 -6 327 -44 18 -13 18 -19
5 -146 -7 -73 -18 -155 -24 -183 l-11 -50 -87 -23 c-319 -85 -504 -335 -485
-654 8 -119 27 -190 83 -309 66 -140 144 -250 260 -367 l104 -104 -27 -11
c-42 -16 -175 -29 -297 -29 -180 0 -263 -30 -385 -139 -154 -137 -215 -204
-234 -256 -25 -66 -34 -194 -17 -235 16 -40 40 -39 105 5 43 28 124 64 146 65
3 0 4 -35 1 -78 -5 -86 11 -135 48 -147 22 -7 21 -8 111 52 82 53 113 60 176
39 26 -9 75 -17 107 -18 65 -3 66 -5 80 -88 3 -19 15 -50 26 -68 30 -48 60
-43 118 19 38 42 105 89 125 89 3 0 10 -29 17 -65 15 -80 45 -129 83 -133 22
-3 43 11 109 72 63 58 90 76 121 82 46 7 57 -3 57 -56 0 -39 29 -94 57 -108
25 -13 53 0 94 44 83 90 106 107 161 116 68 12 71 12 84 20 6 5 11 -9 13 -37
2 -53 15 -100 36 -131 27 -42 62 -32 154 46 119 100 151 104 151 21 0 -88 42
-171 86 -171 17 0 44 18 79 51 52 49 57 51 131 60 43 5 90 17 109 27 l32 20
17 -53 c23 -75 56 -119 90 -123 28 -4 52 15 119 97 26 31 36 36 94 43 111 13
246 107 298 207 23 45 45 120 45 156 1 53 10 58 94 53 42 -3 78 -7 81 -9 2 -3
-10 -45 -28 -94 -27 -77 -32 -104 -32 -187 0 -83 3 -101 21 -125 33 -43 58
-41 138 14 157 109 205 106 206 -8 0 -42 22 -100 44 -119 13 -10 22 -10 48 0
36 14 98 52 142 88 23 18 36 22 70 17 35 -5 65 0 166 26 10 3 15 -3 16 -16 0
-11 5 -30 12 -42 7 -12 12 -24 12 -26 0 -5 -138 -29 -300 -52 -362 -50 -690
-224 -725 -383 -15 -69 23 -77 160 -34 105 34 198 54 350 79 140 22 547 24
855 4 694 -45 1288 69 1663 320 185 123 305 253 394 426 l48 93 41 0 c30 0 46
6 64 25 62 66 23 370 -71 557 -40 80 -39 87 16 80 79 -8 95 34 52 138 -63 154
-202 281 -490 451 -32 19 -65 41 -73 51 -14 15 -11 17 28 23 24 4 58 13 76 21
73 30 21 121 -108 188 -113 60 -206 85 -385 106 -76 9 -104 18 -180 57 -49 25
-102 53 -117 63 l-28 17 55 29 c36 18 54 33 50 42 -3 8 -5 20 -5 27 0 28 -65
87 -132 121 -83 42 -179 63 -323 72 l-109 7 -23 34 c-22 32 -22 35 -5 47 10 8
44 13 85 14 78 0 124 19 129 52 5 28 -18 93 -46 131 -27 37 -132 114 -218 162
-63 34 -217 89 -226 80 -5 -4 -92 125 -92 136 0 12 85 39 155 50 41 7 131 9
215 6 169 -6 277 -32 398 -98 129 -69 263 -188 341 -302 87 -128 156 -331 166
-491 8 -115 12 -136 29 -136 20 0 42 30 64 87 24 65 107 178 170 234 26 23 74
55 107 72 53 27 70 31 141 31 69 0 90 -5 140 -29 129 -63 251 -223 314 -414
59 -178 76 -396 44 -575 -16 -94 -14 -116 11 -116 69 0 212 343 275 662 45
225 60 366 67 624 21 830 -188 1613 -642 2404 -222 387 -535 796 -813 1060
-70 68 -129 133 -141 158 -32 64 -93 120 -146 134 -40 11 -47 18 -70 64 -30
61 -116 144 -187 180 -150 76 -317 68 -405 -21 -67 -66 -57 -128 29 -190 61
-44 84 -82 93 -150 5 -41 2 -61 -11 -87 -25 -47 -29 -158 -10 -250 28 -134 17
-380 -24 -563 -29 -131 -106 -337 -181 -488 -131 -260 -386 -522 -581 -595
-54 -20 -152 -37 -264 -46 -51 -4 -65 -2 -78 13 -17 19 -86 171 -86 190 0 7
30 11 84 11 103 0 116 9 116 82 0 107 -44 222 -129 337 -54 73 -60 95 -39 162
8 27 17 39 30 39 10 0 62 -21 115 -47 108 -52 179 -66 206 -38 13 12 17 34 17
90 0 163 -62 342 -184 530 -24 38 -43 71 -41 73 1 2 29 -10 61 -26 120 -60
270 -78 301 -36 43 59 -31 314 -141 483 -58 89 -56 101 20 181 53 56 97 82
236 144 94 41 101 95 21 153 -52 37 -114 113 -131 159 -16 47 -10 110 17 162
11 20 52 82 92 137 76 106 149 244 149 282 0 12 -9 27 -20 33 -27 14 -73 1
-191 -54 -52 -24 -175 -76 -273 -115 -98 -40 -186 -76 -195 -81 -20 -10 -34
-3 -49 26 -14 27 -22 103 -13 125 3 9 58 57 121 105 144 112 359 323 440 434
80 108 161 276 196 405 24 86 27 120 28 245 0 125 -3 156 -23 223 -23 75 -54
117 -86 117 -31 0 -69 -50 -121 -157 -105 -221 -199 -288 -595 -432 -214 -77
-293 -111 -409 -173 -117 -63 -188 -108 -261 -165 -30 -23 -60 -43 -67 -43 -6
0 -15 -8 -21 -17 -5 -10 -12 -15 -16 -11 -10 10 12 119 62 302 45 167 49 210
22 243 -62 74 -499 -192 -634 -387 -15 -22 -30 -38 -33 -36 -2 3 3 15 12 28 9
12 16 35 16 51 0 15 15 51 33 80 103 162 154 295 164 428 10 131 -30 269 -93
318 -33 26 -54 26 -86 2z m216 -2055 c98 -48 155 -152 155 -281 0 -119 -37
-188 -137 -252 -73 -47 -158 -73 -235 -73 -164 1 -246 114 -219 303 21 143 93
251 207 308 76 39 143 37 229 -5z m-1536 -44 c27 -15 29 -42 3 -42 -24 0 -68
-51 -95 -110 -27 -60 -29 -190 -3 -239 21 -41 22 -57 3 -64 -23 -9 -53 21 -70
70 -42 121 6 347 82 387 28 15 49 14 80 -2z m36 -114 c8 -22 6 -32 -9 -48 -41
-45 -80 -7 -50 50 19 38 45 36 59 -2z m4046 -14 c75 -36 121 -72 161 -128 39
-53 37 -77 -7 -101 -46 -24 -102 -87 -110 -122 -16 -75 -39 -106 -86 -118 -37
-9 -105 52 -114 103 -3 21 -15 66 -27 101 -18 53 -34 75 -89 130 -38 36 -68
73 -68 82 0 8 10 25 23 37 65 61 207 68 317 16z m-4763 -266 c20 -14 45 -47
63 -82 25 -49 30 -71 30 -130 0 -87 -13 -136 -46 -176 -29 -34 -110 -62 -154
-54 -29 6 -90 58 -90 78 -1 16 -43 61 -71 77 -13 7 -54 13 -91 13 -55 0 -77
-5 -129 -32 -34 -18 -64 -30 -67 -27 -11 10 30 93 73 147 137 174 367 263 482
186z m261 -693 c32 -100 69 -162 155 -258 46 -51 100 -116 122 -146 76 -106
225 -205 343 -230 131 -27 341 -7 480 45 36 13 67 22 70 19 9 -9 -19 -147 -43
-210 -31 -83 -90 -201 -156 -315 -31 -52 -82 -142 -114 -200 -66 -118 -103
-170 -145 -200 l-29 -21 -66 30 c-94 43 -177 105 -270 202 -138 145 -247 336
-330 579 -66 193 -114 425 -115 555 0 50 37 347 47 375 3 8 12 -25 19 -75 7
-49 21 -117 32 -150z m2232 -307 c0 -7 -7 -67 -15 -133 -8 -66 -15 -129 -15
-140 0 -16 -2 -17 -10 -5 -8 12 -12 12 -32 -6 -13 -11 -48 -36 -79 -56 -299
-193 -630 -209 -808 -40 -36 35 -41 37 -42 18 0 -12 -3 -16 -5 -10 -2 6 0 28
5 50 8 33 9 35 10 11 1 -17 5 -26 11 -22 6 4 16 2 23 -3 24 -19 86 -33 185
-41 82 -7 120 -6 204 9 124 22 308 84 409 139 41 23 77 41 81 41 4 0 5 -9 3
-20 -4 -22 10 -27 19 -7 3 6 4 -1 2 -16 -2 -16 0 -25 5 -20 8 9 42 234 35 240
-2 2 -69 -16 -149 -41 -161 -50 -323 -86 -501 -111 -66 -10 -167 -30 -224 -45
-57 -16 -100 -25 -96 -20 17 15 211 59 379 85 193 30 344 67 490 118 117 41
115 41 115 25z m-65 -449 c-33 -147 -75 -280 -86 -274 -4 3 -31 -12 -59 -33
-162 -123 -563 -247 -684 -212 -88 25 -166 105 -211 217 -21 51 -24 54 -34 34
-28 -51 55 -198 143 -256 75 -49 122 -59 224 -45 204 27 541 159 601 236 12
15 21 24 21 21 0 -4 -24 -91 -54 -194 -30 -104 -57 -203 -61 -221 -17 -81
-194 -194 -550 -349 -202 -88 -235 -95 -302 -62 -102 49 -224 202 -263 327
-16 51 -18 54 -29 34 -18 -34 -13 -66 25 -140 50 -100 165 -221 251 -264 62
-30 67 -31 120 -20 113 23 475 193 628 294 60 40 81 59 83 78 2 14 8 30 14 35
7 7 9 2 5 -15 -18 -69 -29 -256 -25 -424 l3 -188 -45 -47 c-154 -163 -436
-333 -633 -383 -97 -24 -137 -20 -223 22 -122 60 -259 219 -320 372 -24 58
-25 72 -20 168 3 58 12 134 20 170 55 258 114 397 313 743 97 169 137 248 165
332 21 61 37 103 38 94 0 -19 97 -81 161 -102 86 -29 179 -40 282 -33 129 8
183 24 342 101 133 65 174 93 176 123 1 12 3 11 6 -4 2 -12 -8 -72 -22 -135z
m-1476 -1493 c2 -81 121 -249 233 -329 130 -92 236 -114 358 -73 138 46 387
181 485 264 124 104 155 137 156 166 l1 31 8 -35 c5 -19 16 -73 25 -120 31
-159 173 -545 275 -751 42 -84 50 -110 50 -155 0 -62 -12 -89 -81 -184 -126
-173 -220 -361 -294 -587 -43 -129 -70 -193 -81 -193 -4 0 -4 7 -1 15 5 11 1
12 -19 5 -67 -26 -238 1 -343 54 -50 26 -194 153 -186 165 2 5 -6 18 -20 31
-13 12 -29 44 -36 74 -6 28 -16 58 -21 66 -7 12 -8 10 -4 -5 3 -11 14 -58 26
-105 29 -119 40 -150 52 -150 5 0 34 -21 63 -48 70 -62 193 -130 258 -143 55
-11 180 -3 210 13 14 7 11 -3 -13 -44 -17 -29 -56 -102 -86 -163 -55 -109 -63
-111 -18 -5 13 30 17 46 9 36 -8 -11 -15 -23 -15 -28 0 -4 -5 -8 -11 -8 -5 0
-8 4 -5 9 4 5 0 12 -6 15 -10 5 -10 7 0 12 6 3 12 10 12 16 0 6 -6 6 -15 -2
-8 -7 -15 -9 -15 -6 0 4 -6 4 -12 -1 -23 -14 -38 -11 -38 7 0 23 -19 30 -44
18 -21 -11 -41 3 -41 29 0 9 -9 17 -20 19 -19 3 -19 2 -2 -11 11 -8 14 -16 8
-19 -6 -4 -16 2 -23 14 -7 11 -20 20 -28 20 -13 0 -13 1 0 10 8 5 26 7 40 4
l25 -4 -25 11 c-14 7 -30 11 -36 10 -6 0 -19 9 -30 21 -12 13 -13 18 -4 13 13
-8 13 -6 1 8 -7 9 -16 15 -20 13 -9 -5 -31 21 -24 28 4 3 -1 6 -10 6 -10 0
-17 7 -17 15 0 8 -9 19 -21 25 -11 7 -18 18 -15 25 3 8 1 17 -4 20 -6 4 -10
11 -10 17 0 6 7 5 18 -3 9 -7 6 -1 -8 13 -14 14 -26 24 -28 23 -1 -1 9 -42 23
-91 50 -171 129 -320 238 -449 49 -59 50 -59 8 -20 -50 47 -134 171 -184 270
-36 73 -99 266 -161 492 -51 185 -75 245 -176 433 -176 329 -284 611 -324 845
-18 104 -32 441 -17 410 5 -11 10 -37 10 -59z m2252 -2164 c-6 -2 -33 -27 -59
-56 -25 -28 -78 -83 -118 -122 -71 -71 -72 -72 -78 -137 -4 -37 -12 -79 -17
-94 l-9 -28 4 30 c3 17 8 59 12 95 l7 65 126 131 c69 72 130 129 136 126 5 -3
3 -8 -4 -10z m6 -89 c-2 -16 -4 -3 -4 27 0 30 2 43 4 28 2 -16 2 -40 0 -55z
m47 -193 c25 -75 76 -165 127 -225 42 -50 42 -50 5 -15 -75 70 -157 241 -170
355 l-5 50 13 -55 c7 -30 21 -80 30 -110z m-1364 66 c-12 -31 -26 -56 -32 -56
-7 0 -7 4 -1 13 5 6 18 34 27 60 10 27 20 46 22 44 3 -2 -5 -30 -16 -61z
m3016 -143 c-5 -5 -86 32 -86 39 0 4 20 -2 45 -14 24 -12 43 -23 41 -25z
m-116 -47 c-17 -31 -34 -56 -36 -56 -3 0 10 27 28 59 18 33 34 58 36 56 3 -2
-10 -29 -28 -59z m155 26 c-3 -3 -11 0 -18 7 -9 10 -8 11 6 5 10 -3 15 -9 12
-12z m138 -81 c82 -62 137 -163 143 -265 l3 -61 -9 63 c-18 125 -81 222 -191
293 -27 17 -49 33 -49 36 0 7 43 -21 103 -66z m-2178 -56 c-23 -76 -28 -65 -7
13 9 35 18 59 20 54 2 -6 -4 -36 -13 -67z m1815 -2 c-16 -27 -52 -73 -79 -103
l-49 -55 81 -6 82 -5 -82 -2 c-45 -1 -90 -5 -100 -9 -10 -4 13 28 50 71 37 42
79 95 92 117 14 21 27 39 30 39 3 0 -8 -21 -25 -47z m-1267 -65 c-8 -14 -19
-8 -20 12 -1 16 1 17 12 7 7 -6 11 -15 8 -19z m-88 -23 c-30 -18 -53 -24 -90
-23 l-50 2 48 3 c27 2 63 13 80 24 18 10 37 19 42 19 6 0 -8 -11 -30 -25z
m-3553 -12 c14 -33 12 -131 -3 -170 -17 -45 -46 -69 -127 -104 -42 -18 -91
-43 -109 -56 -17 -13 -34 -23 -37 -23 -12 0 -5 108 9 158 21 70 68 129 144
180 75 50 107 54 123 15z m3388 -22 c-76 -23 -177 -106 -211 -173 -17 -33 -24
-38 -52 -37 -29 2 -30 2 -5 6 17 3 35 16 47 36 47 75 179 178 226 176 16 -1
15 -2 -5 -8z m-360 -52 c-11 -28 -27 -64 -35 -79 -21 -40 -19 -48 13 -53 25
-4 25 -4 -5 -6 -41 -1 -41 7 -5 90 16 35 32 72 35 82 4 9 9 17 12 17 2 0 -4
-23 -15 -51z m-2786 -5 c30 -11 58 -72 58 -125 0 -69 -37 -141 -77 -150 -17
-3 -59 -24 -93 -45 -35 -21 -81 -49 -103 -61 l-38 -22 -7 33 c-17 94 71 276
168 346 41 30 62 35 92 24z m4769 -1 c-7 -2 -19 -2 -25 0 -7 3 -2 5 12 5 14 0
19 -2 13 -5z m60 -10 c-7 -2 -19 -2 -25 0 -7 3 -2 5 12 5 14 0 19 -2 13 -5z
m134 -48 c48 -25 102 -56 118 -70 17 -14 -6 -4 -49 22 -44 26 -105 57 -135 70
-31 12 -48 23 -39 23 9 0 56 -20 105 -45z m-117 -24 c54 -17 131 -58 210 -111
12 -8 8 -16 -25 -46 -108 -98 -342 -225 -515 -281 -210 -67 -350 -98 -350 -77
0 16 38 72 65 96 17 14 81 52 143 83 l112 57 17 57 c15 50 20 140 11 211 -2
20 2 26 27 32 54 13 236 1 305 -21z m310 -34 c0 -2 -9 -14 -20 -27 -11 -13
-20 -19 -20 -15 0 5 7 17 17 27 15 17 23 22 23 15z m-4732 -38 c31 -33 43
-130 22 -184 -8 -21 -154 -175 -166 -175 -10 0 -24 87 -24 150 0 90 29 162 81
203 41 32 62 34 87 6z m2399 15 c-3 -3 -12 -4 -19 -1 -8 3 -5 6 6 6 11 1 17
-2 13 -5z m-2094 -34 c23 -27 47 -104 47 -151 0 -43 -34 -97 -111 -175 -78
-81 -80 -82 -94 -60 -40 61 -43 227 -6 310 10 23 33 56 51 74 44 41 80 42 113
2z m370 0 c47 -37 61 -143 28 -215 -10 -23 -48 -67 -89 -103 -39 -35 -74 -72
-77 -83 -4 -10 -10 -19 -14 -19 -13 0 -32 79 -38 156 -9 116 42 240 110 269
43 19 50 18 80 -5z m432 4 c28 -11 55 -79 55 -139 0 -79 -24 -118 -131 -209
-85 -73 -93 -78 -105 -61 -21 29 -28 105 -15 180 26 154 116 259 196 229z
m1579 -44 c43 -52 48 -152 10 -204 -11 -13 -44 -41 -74 -60 -31 -20 -73 -51
-94 -71 -21 -19 -42 -33 -46 -30 -20 12 -31 103 -21 161 23 126 49 175 112
213 49 30 82 27 113 -9z m-1235 -16 c58 -41 67 -139 19 -234 -32 -64 -172
-214 -193 -207 -16 6 -33 77 -34 141 -2 123 54 253 125 293 47 27 53 28 83 7z
m1613 -5 c11 -6 28 -29 39 -52 50 -111 0 -221 -145 -317 -20 -14 -51 -36 -68
-49 -29 -24 -31 -24 -44 -6 -50 68 -7 277 75 368 52 58 102 78 143 56z m-1174
-35 c33 -23 54 -72 56 -128 1 -67 -18 -110 -65 -144 -21 -16 -58 -56 -83 -90
-25 -34 -51 -62 -57 -62 -5 0 -19 21 -31 46 -30 69 -23 218 14 289 48 93 112
127 166 89z m1634 -41 c80 -91 58 -195 -61 -299 -78 -68 -110 -83 -125 -57
-19 31 -24 56 -25 115 -1 75 28 153 80 212 35 39 46 46 78 46 24 0 44 -7 53
-17z"/>
<path d="M4637 7826 c-32 -14 -68 -33 -80 -43 -37 -32 -76 -78 -76 -88 0 -5 6
-1 14 9 11 14 15 16 15 5 1 -10 6 -7 19 8 24 29 33 19 15 -15 -11 -22 -20 -26
-46 -24 -25 2 -29 0 -18 -7 32 -22 57 -12 79 29 12 23 38 57 58 78 20 20 34
31 29 24 -9 -15 -6 -15 37 3 47 19 79 19 125 -2 20 -9 44 -17 52 -17 8 -1 15
-6 15 -11 0 -16 16 -36 24 -31 4 3 8 -4 8 -15 2 -16 -6 -13 -39 19 -70 69
-136 74 -233 19 -84 -47 -126 -198 -91 -321 19 -63 69 -126 116 -146 48 -20
142 -9 182 22 79 60 121 226 84 334 -19 56 -19 57 -5 48 8 -4 8 -1 1 12 -5 11
-7 24 -5 30 10 29 -131 104 -195 104 -15 0 -53 -11 -85 -24z m85 -113 c34 -31
13 -78 -41 -89 -41 -8 -65 11 -56 45 14 57 60 78 97 44z"/>
<path d="M3216 7757 c-33 -33 -63 -114 -47 -130 10 -9 11 -8 6 8 -6 19 -6 19
8 2 15 -18 15 -18 22 3 3 11 21 40 39 63 18 23 30 49 28 57 -4 12 -2 13 9 3 7
-7 19 -13 27 -13 12 0 12 3 2 15 -19 23 -67 18 -94 -8z m-14 -100 c-4 -14 -7
-16 -13 -5 -12 19 -11 25 5 25 8 0 11 -8 8 -20z"/>
<path d="M2430 7214 c19 -9 47 -25 62 -36 16 -10 28 -17 28 -14 0 10 -74 54
-100 60 -16 4 -13 0 10 -10z"/>
<path d="M2165 7139 c-4 -6 -5 -12 -2 -15 2 -3 7 2 10 11 7 17 1 20 -8 4z"/>
<path d="M2285 7130 c11 -5 29 -9 40 -9 17 -1 17 1 5 9 -8 5 -26 9 -40 9 -23
0 -23 -1 -5 -9z"/>
<path d="M2700 7134 c0 -19 -55 -76 -97 -101 -24 -14 -43 -27 -43 -30 0 -2 4
-2 9 1 5 3 14 -1 21 -9 10 -12 10 -15 0 -15 -8 0 -11 -3 -7 -6 3 -3 16 -3 29
2 l23 7 -23 8 c-15 6 -21 13 -16 21 6 9 9 9 12 0 3 -9 9 -9 23 -1 11 5 17 14
14 20 -4 5 1 9 9 9 10 0 13 -6 9 -17 -5 -14 -3 -16 7 -6 14 13 43 114 35 121
-3 3 -5 1 -5 -4z"/>
<path d="M2528 6963 c6 -2 18 -2 25 0 6 3 1 5 -13 5 -14 0 -19 -2 -12 -5z"/>
<path d="M4140 6046 c0 -2 8 -10 18 -17 15 -13 16 -12 3 4 -13 16 -21 21 -21
13z"/>
<path d="M4715 5856 c-66 -32 -53 -33 16 -2 30 14 50 25 44 25 -5 1 -32 -10
-60 -23z"/>
<path d="M4635 5820 c-3 -6 1 -7 9 -4 18 7 21 14 7 14 -6 0 -13 -4 -16 -10z"/>
<path d="M4854 3865 c-141 -141 -351 -271 -541 -334 -197 -66 -427 36 -605
269 -29 38 -54 68 -55 66 -2 -2 10 -36 27 -77 25 -62 42 -85 104 -145 128
-122 287 -190 425 -182 178 11 476 173 685 372 52 49 72 63 79 54 6 -9 7 -7 3
5 -3 11 -9 30 -12 43 -3 13 -9 23 -13 22 -3 -1 -47 -43 -97 -93z"/>
<path d="M4985 3825 c3 -27 9 -53 13 -57 12 -12 6 53 -7 82 -10 22 -11 18 -6
-25z"/>
<path d="M5051 3698 c-1 -3 8 -27 18 -51 11 -25 18 -47 16 -49 -2 -1 -5 -24
-8 -50 -6 -62 -43 -127 -128 -227 -76 -89 -141 -141 -268 -216 -120 -70 -208
-98 -311 -98 -99 -1 -155 16 -247 74 -34 21 -67 39 -72 39 -5 0 -24 12 -41 26
-40 35 -48 25 -19 -25 12 -23 25 -39 27 -36 4 4 79 -35 162 -83 87 -51 220
-66 321 -36 148 44 334 167 462 304 87 94 123 161 135 252 8 61 6 71 -19 125
-15 32 -28 55 -28 51z"/>
<path d="M5133 3488 c1 -27 5 -48 9 -48 4 0 9 -10 11 -22 2 -13 5 -5 5 17 1
22 -5 54 -12 70 l-14 30 1 -47z"/>
<path d="M3806 3487 c3 -10 9 -15 12 -12 3 3 0 11 -7 18 -10 9 -11 8 -5 -6z"/>
<path d="M3820 3457 c0 -4 21 -47 47 -95 25 -48 55 -104 65 -124 10 -21 23
-38 29 -38 6 0 3 7 -5 16 -9 8 -16 20 -16 25 0 6 -20 45 -45 88 -49 84 -57
113 -27 90 15 -13 16 -12 3 3 -7 10 -17 15 -22 13 -4 -3 -12 3 -18 12 -6 10
-11 15 -11 10z"/>
<path d="M5121 3343 c-10 -26 -10 -27 4 -9 8 11 15 23 15 28 0 15 -7 8 -19
-19z"/>
<path d="M4040 3015 c0 -5 5 -17 10 -25 5 -8 10 -10 10 -5 0 6 -5 17 -10 25
-5 8 -10 11 -10 5z"/>
<path d="M4071 2924 c0 -11 3 -14 6 -6 3 7 2 16 -1 19 -3 4 -6 -2 -5 -13z"/>
<path d="M4210 2545 c0 -8 2 -15 4 -15 2 0 6 7 10 15 3 8 1 15 -4 15 -6 0 -10
-7 -10 -15z"/>
<path d="M4240 2546 c0 -2 8 -10 18 -17 15 -13 16 -12 3 4 -13 16 -21 21 -21
13z"/>
<path d="M4642 2388 c-30 -56 -23 -58 11 -3 14 25 23 45 19 45 -4 0 -17 -19
-30 -42z"/>
<path d="M4416 2318 c3 -5 10 -6 15 -3 13 9 11 12 -6 12 -8 0 -12 -4 -9 -9z"/>
<path d="M4605 2319 c-4 -6 -5 -12 -2 -15 2 -3 7 2 10 11 7 17 1 20 -8 4z"/>
<path d="M5961 994 c0 -11 3 -14 6 -6 3 7 2 16 -1 19 -3 4 -6 -2 -5 -13z"/>
</g>
</svg>
